<?xml version="1.0" encoding="UTF-8"?>
<svg width="1200pt" height="1200pt" version="1.1" viewBox="0 0 1200 1200" xmlns="http://www.w3.org/2000/svg">
 <g fill="#ff001b">
  <path d="m787.73 791.02c-22.969-5.625-46.641 8.6719-52.969 31.641l-0.70312 2.3438c-9.6094 41.953-34.922 78.281-70.312 101.95 5.625 2.3438 11.953 3.9844 17.344 5.625 61.641 14.297 123.52-23.672 139.22-83.906l0.70312-3.2812c6.3281-25.078-8.6719-48.984-33.281-54.375z"/>
  <path d="m885.94 696.8 114.61-292.03 9.6094-24.609 41.25-103.59c0.70312-0.70312 0-2.3438-0.70312-3.2812l-11.953-8.6719c-1.6406-0.70312-3.2812-0.70312-3.9844 1.6406l-48.984 82.266-11.953 20.625-168.52 281.72c-2.3438 3.9844-6.3281 11.953-8.6719 18.984-1.6406 5.625-3.2812 10.312-3.9844 14.297l-1.6406 7.9688-11.953 60.234v0.70312c-0.70312 7.9688 3.9844 18.281 10.312 20.625l25.312 14.297c6.3281 3.2812 15 1.6406 20.625-4.6875v-0.70312l30-46.641c1.6406-1.6406 3.9844-6.3281 7.0312-11.953 3.9844-7.0312 7.9688-15.938 10.312-22.266 1.6406-0.9375 2.3438-3.2812 3.2812-4.9219z"/>
  <path d="m425.39 295.78c-251.02 102.19-330 426.09-242.34 513.75 87.656 87.891 174.61 29.062 207.66-34.688 0 0 44.766-84.141 178.59-40.781 91.406 29.531 197.58-2.5781 221.48-128.2 24.141-125.62-114.61-412.5-365.39-310.08zm-162.19 499.92c-25.781 0-46.641-20.859-46.641-46.641s20.859-46.641 46.641-46.641 46.641 20.859 46.641 46.641-20.859 46.641-46.641 46.641zm45.938-154.92c-25.781 0-46.641-20.859-46.641-46.641s20.859-46.641 46.641-46.641 46.641 20.859 46.641 46.641-20.859 46.641-46.641 46.641zm90-133.83c-25.781 0-46.641-20.859-46.641-46.641s20.859-46.641 46.641-46.641 46.641 20.859 46.641 46.641c0.23438 25.781-20.859 46.641-46.641 46.641zm151.17 0c-25.781 0-46.641-20.859-46.641-46.641s20.859-46.641 46.641-46.641 46.641 20.859 46.641 46.641-20.859 46.641-46.641 46.641zm133.59 70.312c-25.781 0-46.641-20.859-46.641-46.641s20.859-46.641 46.641-46.641 46.641 20.859 46.641 46.641-20.859 46.641-46.641 46.641z"/>
 </g>
</svg>
